# xmcd
#
# Track frame offsets: 
#        150
#        10688
#        26724
#        40620
#        52045
#        64620
#        78364
#        94355
#        104680
#        118973
#        132770
#        146461
#        158204
#        173402
#        186646
#        200274
#        215170
#        228272
#        243860
#        256530
#        268810
#        284829
#        305017
#        315198
#        329111
#        340986
#
# Disc length: 4773 seconds
#
# Revision: 1
# Processed by: cddbd v1.5.2PL0 Copyright (c) Steve Scherf et al.
# Submitted via: ExactAudioCopy v1.0b1
#
DISCID=8112a31a
DTITLE=Lorraine Ellison - Sister Love CD1
DYEAR=2006
DGENRE=Soul
TTITLE0=I Got My Baby Back
TTITLE1=Stay With Me (mono single version)
TTITLE2=Heart And Soul
TTITLE3=Games That Lovers Play (Eine Ganze Nacht)
TTITLE4=He's My Guy
TTITLE5=What A Difference A Day Makes
TTITLE6=A Change Is Gonna Come
TTITLE7=If I Had A Hammer (The Hammer Song)
TTITLE8=When Love Flies Away
TTITLE9=Cry Me A River
TTITLE10=What Is A Woman
TTITLE11=That's For Me
TTITLE12=My Man's Gone Now
TTITLE13=Ain't That Peculiar
TTITLE14=I'm Over You
TTITLE15=Only Your Love
TTITLE16=Try (Just A Little Bit Harder)
TTITLE17=I'm Gonna Cry Till My Tears Run Dry
TTITLE18=I Want To Be Loved
TTITLE19=The Hurt Came Back Again
TTITLE20=Stay With Me (Lp version)
TTITLE21=You Don't Know Nothing About Love
TTITLE22=You're Easy On My Mind
TTITLE23=No Matter How It All Turns Out
TTITLE24=Good Love
TTITLE25=Heart Be Still
EXTD=
EXTT0=
EXTT1=
EXTT2=
EXTT3=
EXTT4=
EXTT5=
EXTT6=
EXTT7=
EXTT8=
EXTT9=
EXTT10=
EXTT11=
EXTT12=
EXTT13=
EXTT14=
EXTT15=
EXTT16=
EXTT17=
EXTT18=
EXTT19=
EXTT20=
EXTT21=
EXTT22=
EXTT23=
EXTT24=
EXTT25=
PLAYORDER=
